<?xml version="1.0" encoding="UTF-8"?>
<svg xmlns="http://www.w3.org/2000/svg" id="Layer_3" data-name="Layer 3" viewBox="0 0 64 64" width="512" height="512"><path d="M62,37V32H60v5H58V32H56v5H54V32H52v5a1,1,0,0,0-1,1v4a6,6,0,0,0,5,5.909v1.163A7,7,0,0,0,57,63V61a5,5,0,0,1,0-10,1,1,0,0,0,1-1V47.908A6,6,0,0,0,63,42V38A1,1,0,0,0,62,37Zm-1,5a4,4,0,0,1-8,0V39h8Z"/><path d="M39.521,12.878l10.184,5.555L45.09,28.586a1,1,0,0,0,1.54,1.19l16-13a1,1,0,0,0-.288-1.715L52.229,11.383l2.729-9.1a1,1,0,0,0-1.54-1.1l-14,10a1,1,0,0,0,.1,1.691ZM52.2,4.513l-2.16,7.2a1,1,0,0,0,.616,1.227L60,16.336,48.67,25.542l3.24-7.128a1,1,0,0,0-.431-1.292l-9.6-5.236Z"/><path d="M39.2,40.024,31,38.2v-3.51A8.974,8.974,0,0,0,33.94,29h.56A3.492,3.492,0,0,0,36,22.351V20a1,1,0,0,0-1-1h-.066a7.644,7.644,0,0,0-2.1-4.416l.877-.877-1.414-1.414L31.266,13.32A8.9,8.9,0,0,0,27.757,12.1l.213-.853A1,1,0,0,0,27,10H23a1,1,0,0,0-.97,1.243l.2.8a7.923,7.923,0,0,0-3.543,1.232l-.979-.978-1.414,1.414.855.855A7.967,7.967,0,0,0,15.069,19H15a1,1,0,0,0-1,1v2.351A3.492,3.492,0,0,0,15.5,29h.559A8.978,8.978,0,0,0,19,34.688V38.2L10.776,40.03a7.256,7.256,0,0,0-5.422,5.792L1.035,61.738A1,1,0,0,0,2,63H47a1,1,0,0,0,.979-1.2L44.667,45.919A7.31,7.31,0,0,0,39.2,40.024ZM33,61H17V57.677L21.192,56h7.616L33,57.677Zm1.372-4.929-5-2A1.012,1.012,0,0,0,29,54H21a1.012,1.012,0,0,0-.372.071l-5,2A1,1,0,0,0,15,57v4H13V41.583l2-.445V51a1,1,0,0,0,1,1H34a1,1,0,0,0,1-1V41.138l2,.445V61H35V57A1,1,0,0,0,34.372,56.071ZM25,44.764a6,6,0,0,0,5.817-4.558L33,40.692V50H17V40.692l2.183-.486A6,6,0,0,0,25,44.764ZM16,22V21H34v1Zm18.5,5H34V24h.5a1.5,1.5,0,0,1,0,3ZM25.719,12l-.5,2h-.438l-.5-2Zm-7.158,3.975.732.732,1.414-1.414-.568-.568a5.926,5.926,0,0,1,2.584-.711l.307,1.229A1,1,0,0,0,24,16h2a1,1,0,0,0,.97-.758l.3-1.2a7.043,7.043,0,0,1,2.52.75l-.5.5,1.414,1.414.7-.7A5.692,5.692,0,0,1,32.909,19H17.09A5.969,5.969,0,0,1,18.561,15.975ZM14,25.5A1.5,1.5,0,0,1,15.5,24H16v3h-.5A1.5,1.5,0,0,1,14,25.5ZM18,28V24H32v4a7,7,0,0,1-14,0Zm7,9a8.934,8.934,0,0,0,4-.951v2.715a4,4,0,0,1-8,0V36.05A8.934,8.934,0,0,0,25,37ZM7.306,46.249A5.287,5.287,0,0,1,11,42.054V61H3.307ZM39,61V42.055a5.315,5.315,0,0,1,3.7,4.233L45.77,61Z"/></svg>
