<svg id="Layer_1" viewBox="0 0 512 512" xmlns="http://www.w3.org/2000/svg" data-name="Layer 1"><path d="m496.121 138.646-18.731-3.693-13.276-32.045 10.635-15.858c3.971-5.921 3.224-13.577-1.818-18.618l-29.362-29.363c-5.042-5.04-12.698-5.787-18.616-1.817l-15.858 10.635-32.046-13.276-3.693-18.731c-1.379-6.994-7.321-11.878-14.45-11.878h-41.524c-7.13 0-13.072 4.885-14.449 11.878l-3.694 18.731-32.045 13.276-15.859-10.636c-5.921-3.97-13.578-3.221-18.616 1.819l-29.362 29.362c-5.042 5.041-5.789 12.697-1.817 18.617l10.635 15.859-7.781 18.781c-.105-.029-.202-.074-.309-.099-13.601-3.114-27.921-3.114-41.525 0-3.087.707-5.315 3.398-5.433 6.563l-.048 1.297c-41.393 11.7-70.906 50.168-70.906 93.506v2.733c-2.473 1.08-4.203 3.544-4.203 6.415v6.886c0 2.929 1.824 5.548 4.57 6.565 2.796 1.035 5.527 2.024 8.207 2.977-.55 4.03-.833 8.109-.833 12.189 0 35.207 20.458 65.721 50.108 80.292-30.575 6.815-58.996 21.538-82.464 43.102-33.08 30.396-53.509 71.684-57.525 116.256-.176 1.958.479 3.899 1.805 5.35s3.201 2.278 5.167 2.278h344.63c1.966 0 3.841-.827 5.167-2.278s1.981-3.393 1.805-5.35c-4.015-44.573-24.444-85.86-57.524-116.256-23.468-21.564-51.889-36.286-82.464-43.102 16.641-8.178 30.388-21.376 39.245-37.611l5.328-3.573 32.044 13.276 3.693 18.731c1.356 6.884 7.434 11.88 14.45 11.88h41.524c7.129 0 13.071-4.885 14.45-11.879l3.693-18.732 32.045-13.276 15.857 10.634c5.92 3.971 13.576 3.225 18.619-1.816l29.361-29.362c5.042-5.042 5.789-12.697 1.818-18.618l-10.635-15.859 13.276-32.044 18.73-3.693c6.994-1.378 11.88-7.32 11.88-14.451v-41.524c0-7.128-4.885-13.07-11.879-14.45zm-339.598 5.639-1.803 48.57c-.144 3.863 2.872 7.111 6.735 7.255 3.879.159 7.111-2.872 7.255-6.735l2.195-59.15c8.208-1.305 16.618-1.304 24.822 0l2.195 59.15c.141 3.775 3.244 6.74 6.99 6.74.088 0 .176-.001.265-.005 3.863-.144 6.879-3.392 6.735-7.255l-1.803-48.57c33.137 11.39 56.356 43.114 56.356 78.671v2.148h-166.297v-2.148c0-35.557 23.219-67.282 56.355-78.671zm123.944 81.405v-2.734c0-25.51-10.228-49.335-27.081-67.01 8.372-40.012 43.476-68.704 84.755-68.704 47.76 0 86.615 38.856 86.615 86.616s-38.855 86.616-86.615 86.616c-19.893 0-38.706-6.66-53.987-18.899.323-.809.516-1.678.516-2.584v-6.886c0-2.87-1.73-5.334-4.202-6.415zm-24.197 13.415c-29.322 9.724-51.353 13.894-72.953 14.057-21.601-.164-43.631-4.333-72.953-14.057zm32.822 254.896h-37.913v-48.539c0-3.866-3.134-7-7-7h-121.724c-3.866 0-7 3.134-7 7v48.539h-37.913v-105.673c13.776-11.33 29.417-20.453 46.403-26.875l34.655 34.656c6.814 6.814 15.766 10.221 24.717 10.221s17.902-3.407 24.717-10.221l34.656-34.656c16.986 6.422 32.627 15.545 46.403 26.875v105.673zm-51.913 0h-107.725v-41.539h107.725zm-39.044-107.791c-8.171 8.17-21.467 8.17-29.636 0l-29.604-29.604c14.14-3.859 29.035-5.92 44.42-5.92s30.282 2.061 44.423 5.92l-29.603 29.603zm-134.594 15.054v92.737h-44.71c4.894-36.122 21.036-68.161 44.711-92.737zm284.262 92.737h-44.711v-92.737c23.675 24.576 39.817 56.616 44.711 92.737zm-164.485-157.871c-41.581 0-75.409-33.828-75.409-75.408 0-2.527.131-5.053.38-7.562 29.678 9.676 52.408 13.838 74.977 14.002h.051s.034 0 .051 0c22.569-.164 45.299-4.326 74.977-14.002.25 2.508.38 5.034.38 7.562 0 41.58-33.827 75.408-75.407 75.408zm310.682-141.51c0 .387-.208.641-.588.715l-22.409 4.418c-2.297.453-4.216 2.025-5.112 4.188l-16.146 38.972c-.896 2.164-.651 4.633.653 6.578l12.724 18.973c.215.321.183.648-.09.921l-29.361 29.361c-.274.274-.603.305-.922.09l-18.974-12.723c-1.944-1.304-4.413-1.549-6.578-.653l-38.972 16.146c-2.163.896-3.735 2.815-4.188 5.113l-4.418 22.409c-.075.379-.329.588-.716.588h-41.524c-.386 0-.64-.208-.715-.587l-4.419-22.41c-.452-2.298-2.024-4.216-4.188-5.113l-38.833-16.088c2.277-7.877 3.502-16.197 3.502-24.797 0-3.678-.23-7.354-.676-10.992 18.315 16.011 41.502 24.745 66.092 24.745 55.479 0 100.615-45.136 100.615-100.616s-45.136-100.616-100.615-100.616c-23.922 0-47.104 8.541-65.278 24.048-14.929 12.74-25.754 29.539-31.239 48.144-7.83-5.938-16.604-10.721-26.084-14.086l10.998-26.547c.896-2.164.651-4.632-.653-6.578l-12.723-18.974c-.215-.32-.184-.647.089-.92l29.362-29.362c.274-.274.602-.304.922-.09l18.973 12.723c1.945 1.305 4.413 1.549 6.578.653l38.972-16.146c2.163-.896 3.735-2.815 4.188-5.113l4.42-22.41c.074-.378.328-.586.714-.586h41.524c.387 0 .641.208.716.587l4.418 22.409c.452 2.298 2.024 4.216 4.188 5.113l38.973 16.146c2.161.896 4.632.651 6.577-.653l18.973-12.723c.321-.214.647-.184.922.09l29.361 29.362c.272.273.305.6.09.921l-12.724 18.973c-1.305 1.945-1.55 4.414-.653 6.578l16.146 38.972c.896 2.164 2.815 3.735 5.112 4.188l22.409 4.418c.379.075.588.329.588.714v41.524zm-204.075-9.785h27.216l-17.973 50.587c-1.117 3.144.141 6.64 3.005 8.352 1.117.668 2.357.992 3.588.992 1.924 0 3.824-.792 5.19-2.301l80.594-88.973c1.859-2.052 2.334-5.006 1.211-7.537-1.122-2.531-3.63-4.163-6.398-4.163h-29.969l16.363-28.341c1.25-2.166 1.25-4.834 0-7-1.251-2.166-3.562-3.5-6.062-3.5h-37.431c-2.497 0-4.805 1.33-6.057 3.491l-39.334 67.884c-1.255 2.166-1.258 4.836-.008 7.004 1.249 2.168 3.562 3.505 6.064 3.505zm43.368-67.884h21.272l-16.363 28.341c-1.25 2.166-1.25 4.834 0 7 1.251 2.166 3.562 3.5 6.062 3.5h26.308l-46.49 51.324 9.57-26.938c.762-2.143.435-4.522-.877-6.38s-3.444-2.963-5.719-2.963h-24.986z"/></svg>