<svg id="Icons" viewBox="0 0 60 60" xmlns="http://www.w3.org/2000/svg"><path d="m44.249 37h-2.162l1.045-7.436c.086-.646-.288-1.254-.908-1.478-.629-.229-1.324.003-1.626.491l-8.334 10.811c-.334.527-.354 1.167-.054 1.712.306.555.896.899 1.541.899h2.162l-1.045 7.436c-.086.646.288 1.254.908 1.478.166.061.337.089.504.089.466 0 .899-.221 1.122-.58l8.334-10.811c.334-.527.354-1.167.054-1.712-.306-.555-.896-.899-1.541-.899zm-7.084 10.461.889-6.321c.04-.287-.046-.577-.235-.796-.19-.219-.466-.344-.755-.344h-2.751l6.522-8.461-.889 6.321c-.04.287.046.577.235.796.19.219.466.344.755.344h2.751z"/><path d="m28 25h22c1.654 0 3-1.346 3-3v-14c0-1.654-1.346-3-3-3h-22c-1.654 0-3 1.346-3 3v14c0 1.654 1.346 3 3 3zm-1-17c0-.552.448-1 1-1h22c.552 0 1 .448 1 1v14c0 .552-.448 1-1 1h-22c-.552 0-1-.448-1-1z"/><path d="m32 21h10c1.302 0 2.402-.839 2.816-2h1.184c1.654 0 3-1.346 3-3v-2c0-1.654-1.346-3-3-3h-1.184c-.414-1.161-1.514-2-2.816-2h-10c-1.654 0-3 1.346-3 3v6c0 1.654 1.346 3 3 3zm15-7v2c0 .552-.448 1-1 1h-1v-4h1c.552 0 1 .448 1 1zm-16-2c0-.552.448-1 1-1h10c.552 0 1 .448 1 1v6c0 .552-.448 1-1 1h-10c-.552 0-1-.448-1-1z"/><path d="m7 50c3.859 0 7-3.141 7-7v-15c0-.552.448-1 1-1h1v3c0 1.654 1.346 3 3 3h1v21c-1.103 0-2 .897-2 2v2c0 1.103.897 2 2 2h38c1.103 0 2-.897 2-2v-2c0-1.103-.897-2-2-2v-49c0-2.757-2.243-5-5-5h-28c-2.757 0-5 2.243-5 5v10h-1c-1.654 0-3 1.346-3 3v3h-1c-3.859 0-7 3.141-7 7v15c0 .552-.448 1-1 1s-1-.448-1-1v-27c0-1.587.547-2.596 1.579-2.917.562-.173.983-.58 1.217-1.083h2.204c1.103 0 2-.897 2-2v-3c0-1.103-.897-2-2-2h-2.25c-.111-.189-.248-.364-.426-.505-.426-.337-.973-.458-1.5-.333-2.052.483-6.824 2.604-6.824 11.838v27c0 3.859 3.141 7 7 7zm4-40h-2v-3h2zm47.002 48h-38.002v-2h38zm-33.002-56h28c1.654 0 3 1.346 3 3v49h-34v-49c0-1.654 1.346-3 3-3zm-7 16c0-.552.448-1 1-1h1v14h-1c-.552 0-1-.448-1-1zm-11.001-11.815-.012 4.988c-.806.251-2.567 1.111-2.92 3.827h-2.039c.287-6.537 3.345-8.331 4.971-8.815zm-4.999 10.815h2v26c0 1.654 1.346 3 3 3s3-1.346 3-3v-15c0-2.757 2.243-5 5-5h1v2h-1c-1.654 0-3 1.346-3 3v15c0 2.757-2.243 5-5 5s-5-2.243-5-5z"/><path d="m34 17c.553 0 1-.447 1-1v-2c0-.553-.447-1-1-1s-1 .447-1 1v2c0 .553.447 1 1 1z"/><path d="m38 17c.553 0 1-.447 1-1v-2c0-.553-.447-1-1-1s-1 .447-1 1v2c0 .553.447 1 1 1z"/></svg>