<svg version="1.1" id="Layer_1" xmlns="http://www.w3.org/2000/svg" xmlns:xlink="http://www.w3.org/1999/xlink" x="0px" y="0px" viewBox="0 0 512 512" style="enable-background:new 0 0 512 512;" xml:space="preserve">
<g>
	<path style="fill:none;stroke:#000000;stroke-width:15;stroke-linecap:round;stroke-linejoin:round;stroke-miterlimit:10;" d="&#10;&#9;&#9;M473.438,209.406l28.299,14.149c1.694,0.847,2.764,2.578,2.764,4.472v100.629c0,2.761-2.239,5-5,5h-26.062"/>
	<path style="fill:none;stroke:#000000;stroke-width:15;stroke-linecap:round;stroke-linejoin:round;stroke-miterlimit:10;" d="&#10;&#9;&#9;M158.983,54.094h299.455c8.284,0,15,6.716,15,15v280.625c0,8.284-6.716,15-15,15H22.5c-8.284,0-15-6.716-15-15V69.094&#10;&#9;&#9;c0-8.284,6.716-15,15-15h101.483"/>
	<path style="fill:none;stroke:#000000;stroke-width:15;stroke-linecap:round;stroke-linejoin:round;stroke-miterlimit:10;" d="&#10;&#9;&#9;M437.375,131.75h-114.25c-2.761,0-5-2.239-5-5V90.156c0-2.761,2.239-5,5-5h114.25c2.761,0,5,2.239,5,5v36.594&#10;&#9;&#9;C442.375,129.511,440.136,131.75,437.375,131.75z"/>
	<path style="fill:none;stroke:#000000;stroke-width:15;stroke-linecap:round;stroke-linejoin:round;stroke-miterlimit:10;" d="&#10;&#9;&#9;M369.498,209.406h-46.373c-2.761,0-5-2.239-5-5v-36.594c0-2.761,2.239-5,5-5h114.25c2.761,0,5,2.239,5,5v36.594&#10;&#9;&#9;c0,2.761-2.239,5-5,5h-32.877"/>
	<path style="fill:none;stroke:#000000;stroke-width:15;stroke-linecap:round;stroke-linejoin:round;stroke-miterlimit:10;" d="&#10;&#9;&#9;M437.375,333.656h-114.25c-2.761,0-5-2.239-5-5v-83.188c0-2.761,2.239-5,5-5h114.25c2.761,0,5,2.239,5,5v83.188&#10;&#9;&#9;C442.375,331.418,440.136,333.656,437.375,333.656z"/>
	
		<line style="fill:none;stroke:#000000;stroke-width:15;stroke-linecap:round;stroke-linejoin:round;stroke-miterlimit:10;" x1="473.438" y1="131.75" x2="504.5" y2="147.281"/>
	
		<line style="fill:none;stroke:#000000;stroke-width:15;stroke-linecap:round;stroke-linejoin:round;stroke-miterlimit:10;" x1="473.438" y1="100.688" x2="504.5" y2="116.219"/>
	<path style="fill:none;stroke:#000000;stroke-width:15;stroke-linecap:round;stroke-linejoin:round;stroke-miterlimit:10;" d="&#10;&#9;&#9;M111.219,457.906H28.031c-2.761,0-5-2.239-5-5v-11.062c0-8.284,6.716-15,15-15h63.188c8.284,0,15,6.716,15,15v11.062&#10;&#9;&#9;C116.219,455.668,113.98,457.906,111.219,457.906z"/>
	<path style="fill:none;stroke:#000000;stroke-width:15;stroke-linecap:round;stroke-linejoin:round;stroke-miterlimit:10;" d="&#10;&#9;&#9;M369.719,457.906h83.188c2.761,0,5-2.239,5-5v-11.062c0-8.284-6.716-15-15-15h-63.188c-8.284,0-15,6.716-15,15v11.062&#10;&#9;&#9;C364.719,455.668,366.957,457.906,369.719,457.906z"/>
	
		<line style="fill:none;stroke:#000000;stroke-width:15;stroke-linecap:round;stroke-linejoin:round;stroke-miterlimit:10;" x1="85.156" y1="364.719" x2="85.156" y2="426.844"/>
	
		<line style="fill:none;stroke:#000000;stroke-width:15;stroke-linecap:round;stroke-linejoin:round;stroke-miterlimit:10;" x1="54.094" y1="426.844" x2="54.094" y2="364.719"/>
	
		<line style="fill:none;stroke:#000000;stroke-width:15;stroke-linecap:round;stroke-linejoin:round;stroke-miterlimit:10;" x1="395.781" y1="364.719" x2="395.781" y2="426.844"/>
	
		<line style="fill:none;stroke:#000000;stroke-width:15;stroke-linecap:round;stroke-linejoin:round;stroke-miterlimit:10;" x1="426.844" y1="426.844" x2="426.844" y2="364.719"/>
	<path style="fill:none;stroke:#000000;stroke-width:15;stroke-linecap:round;stroke-linejoin:round;stroke-miterlimit:10;" d="&#10;&#9;&#9;M50.948,263.549c-7.935-16.365-12.385-34.734-12.385-54.142c0-68.621,55.629-124.25,124.25-124.25s124.25,55.629,124.25,124.25&#10;&#9;&#9;s-55.629,124.25-124.25,124.25c-37.357,0-70.863-16.486-93.64-42.58"/>
	
		<circle style="fill:none;stroke:#000000;stroke-width:15;stroke-linecap:round;stroke-linejoin:round;stroke-miterlimit:10;" cx="162.812" cy="209.406" r="62.125"/>
	
		<circle style="fill:none;stroke:#000000;stroke-width:15;stroke-linecap:round;stroke-linejoin:round;stroke-miterlimit:10;" cx="162.812" cy="209.406" r="31.062"/>
	<path style="fill:none;stroke:#000000;stroke-width:15;stroke-linecap:round;stroke-linejoin:round;stroke-miterlimit:10;" d="&#10;&#9;&#9;M111.319,96.295c24.886,21.681,41.633,50.648,48.271,82.208"/>
	<path style="fill:none;stroke:#000000;stroke-width:15;stroke-linecap:round;stroke-linejoin:round;stroke-miterlimit:10;" d="&#10;&#9;&#9;M39.109,197.445c31.219-10.712,64.679-10.731,95.33-0.699"/>
	<path style="fill:none;stroke:#000000;stroke-width:15;stroke-linecap:round;stroke-linejoin:round;stroke-miterlimit:10;" d="&#10;&#9;&#9;M90.602,310.556c6.333-32.393,23.046-61.379,47.059-82.908"/>
	<path style="fill:none;stroke:#000000;stroke-width:15;stroke-linecap:round;stroke-linejoin:round;stroke-miterlimit:10;" d="&#10;&#9;&#9;M214.306,322.517c-24.886-21.681-41.633-50.648-48.271-82.208"/>
	<path style="fill:none;stroke:#000000;stroke-width:15;stroke-linecap:round;stroke-linejoin:round;stroke-miterlimit:10;" d="&#10;&#9;&#9;M286.516,221.367c-31.219,10.712-64.679,10.731-95.33,0.699"/>
	<path style="fill:none;stroke:#000000;stroke-width:15;stroke-linecap:round;stroke-linejoin:round;stroke-miterlimit:10;" d="&#10;&#9;&#9;M235.023,108.257c-6.333,32.393-23.046,61.379-47.059,82.908"/>
	
		<circle style="fill:none;stroke:#000000;stroke-width:15;stroke-linecap:round;stroke-linejoin:round;stroke-miterlimit:10;" cx="162.812" cy="209.406" r="93.188"/>
</g>
<g>
</g>
<g>
</g>
<g>
</g>
<g>
</g>
<g>
</g>
<g>
</g>
<g>
</g>
<g>
</g>
<g>
</g>
<g>
</g>
<g>
</g>
<g>
</g>
<g>
</g>
<g>
</g>
<g>
</g>
</svg>