<?xml version="1.0" encoding="UTF-8"?>
<svg xmlns="http://www.w3.org/2000/svg" id="icons" viewBox="0 0 60 60" width="512" height="512"><path d="M57,39H56V38a6.006,6.006,0,0,0-6-6H46V21.656a1.834,1.834,0,0,0,1.4.315,1.866,1.866,0,0,0,1.228-.807l1.055-1.574a1.883,1.883,0,0,0-.452-2.558L26.078.351a1.834,1.834,0,0,0-2.154,0L17,5.338V4.66A2.663,2.663,0,0,0,14.34,2H11.66A2.663,2.663,0,0,0,9,4.66V11.1L.77,17.032a1.882,1.882,0,0,0-.454,2.557l1.056,1.575A1.876,1.876,0,0,0,2.932,22,1.836,1.836,0,0,0,4,21.655V48a4,4,0,0,0,4,4h4v2a6.006,6.006,0,0,0,6,6H50a6.006,6.006,0,0,0,6-6V53h1a3,3,0,0,0,3-3V42A3,3,0,0,0,57,39ZM11,4.66A.653.653,0,0,1,11.66,4h2.68a.653.653,0,0,1,.66.66V6.779L11,9.661ZM2.046,18.577,25,2.039l22.956,16.54-.885,1.385L26.078,4.849a1.831,1.831,0,0,0-2.153,0L2.961,19.941ZM12,38V50H8a2,2,0,0,1-2-2V20.218L25,6.537,44,20.218V32H18A6.006,6.006,0,0,0,12,38ZM54,54a4,4,0,0,1-4,4H18a4,4,0,0,1-4-4V38a4,4,0,0,1,4-4H50a4,4,0,0,1,4,4Zm4-4a1,1,0,0,1-1,1H56V41h1a1,1,0,0,1,1,1Z"/><path d="M21,36H18a2,2,0,0,0-2,2V54a2,2,0,0,0,2,2h3a2,2,0,0,0,2-2V38A2,2,0,0,0,21,36ZM18,54V38h3l0,16Z"/><path d="M30,36H27a2,2,0,0,0-2,2V54a2,2,0,0,0,2,2h3a2,2,0,0,0,2-2V38A2,2,0,0,0,30,36ZM27,54V38h3l0,16Z"/><path d="M39,36H36a2,2,0,0,0-2,2V54a2,2,0,0,0,2,2h3a2,2,0,0,0,2-2V38A2,2,0,0,0,39,36ZM36,54V38h3l0,16Z"/></svg>
