<?xml version="1.0" encoding="UTF-8"?>
<svg xmlns="http://www.w3.org/2000/svg" xmlns:xlink="http://www.w3.org/1999/xlink" version="1.1" id="Capa_1" x="0px" y="0px" viewBox="0 0 512 512" style="enable-background:new 0 0 512 512;" xml:space="preserve" width="512" height="512">
<g>
	<path style="fill:none;stroke:#000000;stroke-width:15;stroke-linecap:round;stroke-linejoin:round;stroke-miterlimit:10;" d="&#10;&#9;&#9;M354.68,417.79v13.55c0,13.1-10.62,23.73-23.73,23.73H32.82c-13.11,0-23.73-10.63-23.73-23.73V31.23&#10;&#9;&#9;C9.09,18.12,19.71,7.5,32.82,7.5h298.13c13.11,0,23.73,10.62,23.73,23.73v152.768"/>
	<path style="fill:none;stroke:#000000;stroke-width:15;stroke-linecap:round;stroke-linejoin:round;stroke-miterlimit:10;" d="&#10;&#9;&#9;M145.635,66.346h135.143c8.314,0,15.054,6.74,15.054,15.054v14.38c0,8.314-6.74,15.054-15.054,15.054H82.99&#10;&#9;&#9;c-8.314,0-15.054-6.74-15.054-15.054V81.4c0-8.314,6.74-15.054,15.054-15.054h27.563"/>
	
		<line style="fill:none;stroke:#000000;stroke-width:15;stroke-linecap:round;stroke-linejoin:round;stroke-miterlimit:10;" x1="248.269" y1="165.867" x2="220.767" y2="165.867"/>
	
		<line style="fill:none;stroke:#000000;stroke-width:15;stroke-linecap:round;stroke-linejoin:round;stroke-miterlimit:10;" x1="278.081" y1="165.867" x2="278.081" y2="165.867"/>
	
		<polyline style="fill:none;stroke:#000000;stroke-width:15;stroke-linecap:round;stroke-linejoin:round;stroke-miterlimit:10;" points="&#10;&#9;&#9;138.009,254.069 151.077,220.24 122.917,220.24 135.985,186.411 &#9;"/>
	
		<circle style="fill:none;stroke:#000000;stroke-width:15;stroke-linecap:round;stroke-linejoin:round;stroke-miterlimit:10;" cx="136.997" cy="220.24" r="69.061"/>
	<g>
		
			<circle style="fill:none;stroke:#000000;stroke-width:15;stroke-linecap:round;stroke-linejoin:round;stroke-miterlimit:10;" cx="317.24" cy="318.83" r="105.784"/>
		
			<ellipse transform="matrix(0.3827 -0.9239 0.9239 0.3827 -98.7228 489.9105)" style="fill:none;stroke:#000000;stroke-width:15;stroke-linecap:round;stroke-linejoin:round;stroke-miterlimit:10;" cx="317.24" cy="318.83" rx="73.784" ry="73.784"/>
		
			<line style="fill:none;stroke:#000000;stroke-width:15;stroke-linecap:round;stroke-linejoin:round;stroke-miterlimit:10;" x1="392.041" y1="393.631" x2="419.092" y2="420.682"/>
		<path style="fill:none;stroke:#000000;stroke-width:15;stroke-linecap:round;stroke-linejoin:round;stroke-miterlimit:10;" d="&#10;&#9;&#9;&#9;M495.924,497.514L495.924,497.514c-9.315,9.315-24.417,9.315-33.731,0l-43.101-43.101c-9.315-9.315-9.315-24.417,0-33.731l0,0&#10;&#9;&#9;&#9;c9.315-9.315,24.417-9.315,33.731,0l43.101,43.101C505.239,473.098,505.239,488.199,495.924,497.514z"/>
	</g>
	<path style="fill:none;stroke:#000000;stroke-width:15;stroke-linecap:round;stroke-linejoin:round;stroke-miterlimit:10;" d="&#10;&#9;&#9;M150.85,287.91v112.43c0,7.65-6.2,13.85-13.85,13.85c-7.66,0-13.86-6.2-13.86-13.85V287.91"/>
	
		<line style="fill:none;stroke:#000000;stroke-width:15;stroke-linecap:round;stroke-linejoin:round;stroke-miterlimit:10;" x1="101.907" y1="356.348" x2="172.087" y2="356.348"/>
	<g>
		<path style="fill:none;stroke:#000000;stroke-width:15;stroke-linecap:round;stroke-linejoin:round;stroke-miterlimit:10;" d="&#10;&#9;&#9;&#9;M300.197,288.463c3.602-4.563,9.242-7.442,15.546-7.264c9.815,0.277,17.97,8.2,18.51,18.004c0.449,8.153-4.22,15.27-11.086,18.432&#10;&#9;&#9;&#9;c-4.845,2.231-7.977,7.043-7.977,12.377l0,0"/>
		
			<line style="fill:none;stroke:#000000;stroke-width:15;stroke-linecap:round;stroke-linejoin:round;stroke-miterlimit:10;" x1="315.118" y1="356.468" x2="315.118" y2="356.468"/>
	</g>
</g>















</svg>
