<?xml version="1.0" encoding="UTF-8"?>
<svg xmlns="http://www.w3.org/2000/svg" viewBox="0 0 64 64" width="512" height="512"><g id="smarthome-home-wifi-mobilephone-house"><path d="M25,43h1a1,1,0,0,0,0-2H25a1,1,0,0,0,0,2Z"/><path d="M43,51H41a1,1,0,0,0,0,2h2a1,1,0,0,0,0-2Z"/><path d="M43,27H41a1,1,0,0,0,0,2h2a1,1,0,0,0,0-2Z"/><path d="M18,10a8.945,8.945,0,0,1,6.363,2.637,1,1,0,0,0,1.414-1.414,10.994,10.994,0,0,0-15.554,0,1,1,0,0,0,1.414,1.414A8.945,8.945,0,0,1,18,10Z"/><path d="M18,11a7.946,7.946,0,0,0-5.657,2.343,1,1,0,0,0,1.414,1.414,6,6,0,0,1,8.486,0,1,1,0,1,0,1.414-1.414A7.946,7.946,0,0,0,18,11Z"/><path d="M18,14a5.006,5.006,0,0,0-3.532,1.458,1,1,0,0,0,1.4,1.424,3.082,3.082,0,0,1,4.256,0,1,1,0,1,0,1.4-1.424A5.006,5.006,0,0,0,18,14Z"/><circle cx="18" cy="19" r="2"/><path d="M57.94,26.07a1.094,1.094,0,0,0,.5.13,1.153,1.153,0,0,0,.26-.03,1.026,1.026,0,0,0,.61-.47l3-5.2a1.01,1.01,0,0,0-.37-1.37L32.5,2.13a1.044,1.044,0,0,0-1,0L26.15,5.22A11.976,11.976,0,0,0,6.31,16.68L2.06,19.13a1.01,1.01,0,0,0-.37,1.37l3,5.2a1.026,1.026,0,0,0,.61.47,1.153,1.153,0,0,0,.26.03,1.094,1.094,0,0,0,.5-.13L8,24.95V52H3a1,1,0,0,0-1,1v6a1,1,0,0,0,1,1H46v1a1,1,0,0,0,2,0V59.7a2.988,2.988,0,0,0-.2-1.07.076.076,0,0,1-.02-.04,2.9,2.9,0,0,0-.44-.76l-1.26-1.59c-.06-.07-.12-.16-.18-.24H51a.987.987,0,0,0,.92-.62,1,1,0,0,0-.21-1.09l-1.59-1.58a1.008,1.008,0,0,1,0-1.42l.17-.17a3,3,0,0,0,0-4.24l-2.53-2.54a2,2,0,0,1,0-2.83l4.52,4.52a1,1,0,1,0,1.41-1.41L52,42.93V39.41l2.29,2.3,2.25,2.24A4.976,4.976,0,0,1,58,47.49V61a1,1,0,0,0,2,0V47.49a6.959,6.959,0,0,0-2.05-4.95L56,40.59V24.95ZM18,4A10,10,0,1,1,8,14,10.016,10.016,0,0,1,18,4ZM5.93,23.83l-2-3.46,3-1.74a12.1,12.1,0,0,0,2.16,3.38ZM4,58V54H32.18A3.01,3.01,0,0,0,35,56h8.7a5.049,5.049,0,0,0,.82,1.49l.4.51Zm12-6V32H28V52Zm32.59,2H35a1,1,0,0,1-1-1V50H48.61a2.982,2.982,0,0,0-.02,4ZM50,40.93l-.83-.83a2,2,0,0,0-2.83,0,4.008,4.008,0,0,0,0,5.66L48.59,48H34V32H50ZM50,30H34V27a1,1,0,0,1,1-1H49a1,1,0,0,1,1,1Zm4,8.59-2-2V27a3.009,3.009,0,0,0-3-3H35a3.009,3.009,0,0,0-3,3V52H30V31a1,1,0,0,0-1-1H15a1,1,0,0,0-1,1V52H10V23.79l.61-.35A11.986,11.986,0,0,0,30,14a11.655,11.655,0,0,0-.13-1.68L32,11.08,54,23.79ZM32.5,9.06a1.018,1.018,0,0,0-1,0l-2.1,1.22a11.66,11.66,0,0,0-1.87-3.54L32,4.15,60.07,20.37l-2,3.46Z"/><path d="M40,34H37a1,1,0,0,0-1,1v3a1,1,0,0,0,1,1h3a1,1,0,0,0,1-1V35A1,1,0,0,0,40,34Zm-1,3H38V36h1Z"/><path d="M40,41H37a1,1,0,0,0-1,1v3a1,1,0,0,0,1,1h3a1,1,0,0,0,1-1V42A1,1,0,0,0,40,41Zm-1,3H38V43h1Z"/><path d="M47,34H44a1,1,0,0,0-1,1v3a1,1,0,0,0,1,1h3a1,1,0,0,0,1-1V35A1,1,0,0,0,47,34Zm-1,3H45V36h1Z"/></g></svg>
