<?xml version="1.0" encoding="UTF-8"?>
<svg xmlns="http://www.w3.org/2000/svg" version="1.1" viewBox="0 0 64 64">
  <!-- Generator: Adobe Illustrator 28.7.1, SVG Export Plug-In . SVG Version: 1.2.0 Build 142)  -->
  <g>
    <g id="Wind_Energy">
      <path d="M38.1,5.9c.2-.5.8-.8,1.3-.6,8.2,3.1,13.7,11,13.7,19.7s0,2.1-.2,3.1c0,.5-.5.9-1,.9s0,0-.2,0c-.5,0-.9-.6-.8-1.1.1-.9.2-1.9.2-2.9,0-7.9-5-15-12.3-17.8-.5-.2-.8-.8-.6-1.3ZM40,11.1c-.5-.3-1.1-.1-1.4.4s-.1,1.1.4,1.4c4.3,2.5,7,7.1,7,12.1s.4,1,1,1,1-.4,1-1c0-5.7-3.1-11-8-13.9ZM26.7,40.1c.1,0,.2,0,.3,0,.4,0,.8-.3.9-.7.2-.5,0-1.1-.6-1.3-.8-.3-1.6-.6-2.3-1.1-.5-.3-1.1-.1-1.4.4-.3.5-.1,1.1.4,1.4.8.5,1.7.9,2.7,1.2ZM25.7,45c.4,0,.8-.3.9-.7.2-.5-.1-1.1-.6-1.3-2-.6-3.8-1.6-5.5-2.8-.4-.3-1.1-.2-1.4.2-.3.4-.2,1.1.2,1.4,1.8,1.4,3.9,2.4,6,3.1.1,0,.2,0,.3,0ZM40.4,37.5c-.3-.5-.9-.6-1.4-.4-.7.4-1.5.8-2.3,1.1-.5.2-.8.8-.6,1.3.1.4.5.7.9.7s.2,0,.3,0c.9-.3,1.8-.7,2.7-1.2.5-.3.6-.9.4-1.4ZM38.3,45c.1,0,.2,0,.3,0,2.2-.7,4.2-1.8,6-3.1.4-.3.5-1,.2-1.4-.3-.4-1-.5-1.4-.2-1.7,1.2-3.5,2.2-5.5,2.8-.5.2-.8.7-.6,1.3.1.4.5.7,1,.7ZM33,25c0-.6-.4-1-1-1s-1,.4-1,1,.4,1,1,1,1-.4,1-1ZM61,50v12c0,1.1-.9,2-2,2h-10c-1.1,0-2-.9-2-2v-1h-6v2c0,.6-.4,1-1,1h-16c-.6,0-1-.4-1-1v-9h-1c-.6,0-1-.4-1-1s.4-1,1-1h7v-20c-4.1,4-9.6,6.2-15.2,6.2-.9,0-1.8,0-2.7-.2-.3,0-.6-.2-.7-.5-.2-.3-.2-.6,0-.9,1.3-3,3.2-5.7,5.7-7.9,2.5-2.2,5.3-3.8,8.5-4.7l1.7-.5c.3-1.2.9-2.2,1.7-3l-.4-1.7c-1.6-6.5-.3-13.2,3.7-18.5C31.4.1,31.7,0,32,0h0c.3,0,.6.1.8.4,2.9,3.8,4.4,8.4,4.4,13.2s-.2,3.6-.7,5.4l-.4,1.7c.8.8,1.4,1.8,1.7,3l1.7.5c6.4,1.8,11.6,6.4,14.2,12.5.1.3.1.6,0,.9-.2.3-.4.5-.7.5-.9.1-1.8.2-2.6.2-5.7,0-11.1-2.2-15.3-6.2v20h7c.6,0,1,.4,1,1s-.4,1-1,1h-1v5h6v-9c0-1.1.9-2,2-2h10c1.1,0,2,.9,2,2ZM32,29c2.2,0,4-1.8,4-4s-1.8-4-4-4-4,1.8-4,4,1.8,4,4,4ZM39,26l-1-.3c-.2,1.7-1.1,3.1-2.4,4.1l.8.7c4,3.9,9.3,5.9,14.9,5.6-2.5-4.9-6.9-8.6-12.3-10.1ZM29.7,19.5c.7-.3,1.5-.5,2.3-.5s1.6.2,2.3.5l.3-1c.4-1.6.6-3.2.6-4.9,0-3.9-1.1-7.6-3.2-10.8-3,4.6-4,10.3-2.6,15.7l.3,1ZM27.6,30.5l.8-.7c-1.3-1-2.2-2.4-2.4-4.1l-1,.3c-2.9.8-5.5,2.3-7.7,4.2-1.9,1.7-3.4,3.6-4.6,5.9,5.5.3,10.9-1.7,14.9-5.6ZM31,52h2v-21.1c-.3,0-.7,0-1,0s-.7,0-1,0v21.1ZM34,62v-2c0-1.1-.9-2-2-2s-2,.9-2,2v2h4ZM39,54h-14v8h3v-2c0-2.2,1.8-4,4-4s4,1.8,4,4v2h3v-8ZM59,62v-12h-10v12h10ZM54.2,54.8l.7-1.4c.2-.5,0-1.1-.4-1.3-.5-.2-1.1,0-1.3.4l-1,2c-.2.4-.1.9.2,1.2l1.5,1.5-.7,1.4c-.2.5,0,1.1.4,1.3s.3.1.4.1c.4,0,.7-.2.9-.6l1-2c.2-.4.1-.9-.2-1.2l-1.5-1.5ZM10,8h12c2.2,0,4-1.8,4-4S24.2,0,22,0s-3.2,1.1-3.8,2.7c-.2.5,0,1.1.6,1.3.5.2,1.1,0,1.3-.6.3-.8,1-1.3,1.9-1.3s2,.9,2,2-.9,2-2,2h-12c-.6,0-1,.4-1,1s.4,1,1,1ZM21,16c0,1.7-1.3,3-3,3s-3-1.3-3-3-.4-1-1-1-1,.4-1,1c0,2.8,2.2,5,5,5s5-2.2,5-5-2.2-5-5-5h-10c-.6,0-1,.4-1,1s.4,1,1,1h10c1.7,0,3,1.3,3,3ZM6,6h-2c-.6,0-1,.4-1,1s.4,1,1,1h2c.6,0,1-.4,1-1s-.4-1-1-1Z"/>
    </g>
  </g>
</svg>