<?xml version="1.0" encoding="UTF-8"?><svg id="Layer_2" xmlns="http://www.w3.org/2000/svg" viewBox="0 0 94.66 84.7"><defs><style>.cls-1{fill:#fefefe;fill-rule:evenodd;}</style></defs><g id="Layer_1-2"><path class="cls-1" d="M52.84,0c7.08,0,12.86.49,17.31,1.47,4.47.96,8.33,2.53,11.59,4.67,3.44,2.33,6.28,5.24,8.49,8.77-1.22,2.09-2.45,4.18-3.73,6.24-2.35,3.81-4.58,7.69-6.87,11.53-1.12,1.89-2.31,3.75-3.45,5.64-.95,1.58-3.17,5.11-3.53,6.84l-.62,2.97,3.04.07c6.52.16,13.05.07,19.58.05-.55,2.82-1.3,5.57-2.25,8.24-2.26,6.21-5.43,11.55-9.57,15.98-4.1,4.41-9.02,7.55-14.78,9.41-5.74,1.88-14,2.82-24.76,2.82H0l2.92-16.59h8.51l9-51.53h-8.43L14.92,0h37.92ZM51.06,16.59h-8.33l-9.08,51.53h7.29c10.76,0,18.74-2.55,23.96-7.67,5.2-5.12,7.8-12.94,7.8-23.47,0-6.86-1.78-11.96-5.37-15.33-3.57-3.37-9-5.06-16.27-5.06Z"/></g></svg>