<?xml version="1.0" encoding="UTF-8"?><svg id="Layer_1" xmlns="http://www.w3.org/2000/svg" viewBox="0 0 519.03 88.81"><defs><style>.cls-1,.cls-2{fill-rule:evenodd;}.cls-1,.cls-3{fill:#ffed00;}.cls-2,.cls-4{fill:#fff;}</style></defs><path class="cls-2" d="M52.84.68c7.08,0,12.86.49,17.31,1.47,4.47.96,8.33,2.53,11.59,4.67,3.44,2.33,6.28,5.24,8.49,8.77-1.22,2.09-2.45,4.18-3.73,6.24-2.35,3.81-4.58,7.69-6.87,11.53-1.12,1.89-2.31,3.75-3.45,5.64-.95,1.58-3.17,5.11-3.53,6.84l-.62,2.97,3.04.07c6.52.16,13.05.07,19.58.05-.55,2.82-1.3,5.57-2.25,8.24-2.26,6.21-5.43,11.55-9.57,15.98-4.1,4.41-9.02,7.55-14.78,9.41-5.74,1.88-14,2.82-24.76,2.82H0l2.92-16.59h8.51l9-51.53h-8.43L14.92.68h37.92ZM51.06,17.26h-8.33l-9.08,51.53h7.29c10.76,0,18.74-2.55,23.96-7.67,5.2-5.12,7.8-12.94,7.8-23.47,0-6.86-1.78-11.96-5.37-15.33-3.57-3.37-9-5.06-16.27-5.06Z"/><path class="cls-2" d="M106,85.38l2.94-16.59h8.61l2.81-16.91,9.78-8.87c1.9-1.73,7.05-5.87,8-7.91l1.67-3.59-16.05-.03,2.36-14.21h-8.1l.96-5.44,1.19-1.63c1.69-2.32,5.68-6.93,6.47-9.4l.04-.11h64.85l-4.37,31.53h-15.73l-1.33-14.94h-20.96l-2.8,16.12h15.57l-3.12,16.82h-15.39l-3.27,18.59h23.39l6.49-16.94h15.73l-7.41,33.53h-72.31l-.02-.02Z"/><path class="cls-1" d="M74.73,46.35c9.89.24,20.09-.08,30.11.1-.82,1.86-13.42,19.25-14.82,21.2-5.02,6.97-10.05,14.08-14.85,21.16,1.49-.74,5.97-5.14,7.45-6.5l45.41-41.18c1.51-1.36,6.82-5.83,7.4-7.1l-35.99-.07c.28-1.18,10.69-14.99,12.07-16.83,2.15-2.87,4.12-5.58,6.19-8.44,1.29-1.77,5.59-7.07,6.11-8.69l-21.87.17c-4.78,7.36-9,15.37-13.69,22.97-2.38,3.85-4.56,7.65-6.84,11.5-1.12,1.88-6.34,10.07-6.67,11.7"/><path class="cls-4" d="M200.8,44.47l.69-6.59h3.92l2.54-24.37h-3.92l.69-6.59h16.52c5.66,0,9.88,1.49,12.68,4.45,2.79,2.96,4.18,7.01,4.18,12.13,0,6.08-1.84,11.1-5.52,15.05-3.68,3.95-8.61,5.92-14.81,5.92,0,0-16.98,0-16.98,0ZM217.9,37.89c3.92,0,6.95-1.15,9.07-3.47,2.12-2.31,3.18-5.7,3.18-10.17,0-7.16-3.23-10.75-9.7-10.75h-5.08l-2.54,24.37h5.08,0Z"/><path class="cls-4" d="M237.31,37.89h3.29l12.82-24.37h-4.97l.69-6.59h12.36l9.77,30.96h3.41l-.69,6.59h-14.33l.69-6.59h2.89l-.98-3.82h-12.25l-1.85,3.82h3.35l-.69,6.59h-14.21l.69-6.59h0ZM257.87,17.96l-5.14,10.57h8.14l-2.66-10.57h-.35Z"/><path class="cls-4" d="M304.6,32.68c0,4.01-1.32,7.06-3.96,9.18-2.64,2.11-6.31,3.18-11.01,3.18-2.58,0-5.08-.32-7.48-.98-2.4-.66-4.27-1.64-5.57-2.94l2.13-9.3,6,.58-.52,4.56c1.2.69,2.23,1.11,3.12,1.24.88.14,1.58.2,2.08.2,2.16,0,3.86-.33,5.11-1.01,1.25-.67,1.88-2.05,1.88-4.13,0-1.89-.54-3.11-1.62-3.67-1.08-.56-2.67-1.03-4.8-1.41-1.69-.31-3.36-.78-4.99-1.41-1.64-.64-3-1.62-4.07-2.94-1.08-1.33-1.62-3.24-1.62-5.75,0-2.89.72-5.18,2.17-6.9,1.44-1.71,3.28-2.94,5.49-3.7,2.21-.75,4.47-1.12,6.79-1.12,2.54,0,4.86.38,6.96,1.12,2.1.75,3.69,1.76,4.76,3.03l-.52,8.14-6.12.58-.05-4.39c-.88-.66-1.79-1.1-2.72-1.33-.93-.23-1.84-.35-2.77-.35-1.62,0-3.01.3-4.16.89-1.15.59-1.74,1.61-1.74,3.03,0,1.5.61,2.54,1.84,3.12,1.23.58,2.66,1.04,4.28,1.39,1.62.35,3.28.84,4.99,1.48s3.16,1.68,4.33,3.15,1.76,3.62,1.76,6.47h.02Z"/><path class="cls-4" d="M308.01,37.89h3.87l2.54-24.37h-3.87l.69-6.59h15.19l-.69,6.59h-3.92l-.93,8.67h15.25l.93-8.67h-3.87l.69-6.59h15.19l-.69,6.59h-3.87l-2.54,24.37h3.87l-.69,6.59h-15.19l.69-6.59h3.87l.93-9.18h-15.25l-.93,9.18h3.92l-.69,6.59h-15.19l.69-6.59Z"/><path class="cls-4" d="M404.88,13.51h-2.94l-13.11,30.96h-5.26l-5.95-24.26h-.29l-10.63,24.26h-5.37l-7.28-30.96h-3.12l.69-6.59h14.33l-.69,6.59h-3.29l3.47,18.13h.34l8.32-18.13h-2.83l.69-6.59h14.38l-.69,6.59h-2.6l4.45,18.49h.35l6.64-18.49h-3.82l.69-6.59h14.21l-.69,6.59h.02Z"/><path class="cls-4" d="M424.63,6.35c5.27,0,9.37,1.69,12.28,5.09,2.91,3.39,4.37,7.47,4.37,12.25,0,3.85-.88,7.39-2.66,10.63-1.77,3.23-4.23,5.83-7.36,7.79-3.14,1.96-6.71,2.94-10.72,2.94-5.39,0-9.48-1.7-12.25-5.11s-4.16-7.48-4.16-12.21c0-3.97.9-7.57,2.72-10.8,1.81-3.23,4.26-5.8,7.33-7.71,3.08-1.91,6.56-2.86,10.46-2.86h0ZM421.68,38.23c3.89,0,6.78-1.44,8.67-4.33,1.89-2.89,2.83-6.1,2.83-9.65s-.85-6.27-2.54-8.2-3.97-2.89-6.81-2.89c-3.62,0-6.46,1.37-8.52,4.1-2.06,2.74-3.09,5.98-3.09,9.77,0,2.85.7,5.43,2.11,7.74,1.4,2.31,3.86,3.47,7.36,3.47h0Z"/><path class="cls-4" d="M464.2,6.35c5.27,0,9.37,1.69,12.28,5.09,2.91,3.39,4.37,7.47,4.37,12.25,0,3.85-.88,7.39-2.66,10.63-1.77,3.23-4.23,5.83-7.36,7.79-3.14,1.96-6.71,2.94-10.72,2.94-5.39,0-9.48-1.7-12.25-5.11s-4.16-7.48-4.16-12.21c0-3.97.9-7.57,2.72-10.8,1.81-3.23,4.26-5.8,7.33-7.71,3.08-1.91,6.56-2.86,10.46-2.86h0ZM461.25,38.23c3.89,0,6.78-1.44,8.67-4.33s2.83-6.1,2.83-9.65-.85-6.27-2.54-8.2-3.97-2.89-6.81-2.89c-3.62,0-6.46,1.37-8.52,4.1-2.06,2.74-3.09,5.98-3.09,9.77,0,2.85.7,5.43,2.11,7.74,1.4,2.31,3.86,3.47,7.36,3.47h0Z"/><path class="cls-4" d="M481.69,44.47l.69-6.59h3.92l2.54-24.37h-3.92l.69-6.59h16.52c5.66,0,9.88,1.49,12.68,4.45,2.79,2.96,4.19,7.01,4.19,12.13,0,6.08-1.84,11.1-5.52,15.05-3.68,3.95-8.61,5.92-14.81,5.92h-16.98ZM498.79,37.89c3.92,0,6.95-1.15,9.07-3.47,2.11-2.31,3.18-5.7,3.18-10.17,0-7.16-3.23-10.75-9.7-10.75h-5.09l-2.54,24.37h5.09,0Z"/><path class="cls-3" d="M197.46,81.04l3.7-23.53h16.78l-.67,4.37h-11.55l-.84,5.1h10.85l-.7,4.3h-10.81l-.86,5.37h11.55l-.7,4.37h-16.75Z"/><path class="cls-3" d="M225.42,81.4c-2.04,0-3.52-.53-4.42-1.6s-1.2-2.59-.88-4.57l2.8-17.72h5.44l-2.77,17.35c-.06.51-.05.95.04,1.3.09.36.26.63.52.82.25.19.6.28,1.05.28.33,0,.65-.02.95-.06.3-.05.6-.1.92-.17l-.17,3.81c-.6.2-1.16.34-1.67.43-.51.09-1.12.14-1.8.14h0Z"/><path class="cls-3" d="M241.01,81.4c-2.3,0-4.15-.37-5.57-1.12-1.42-.75-2.43-1.78-3.02-3.12-.59-1.33-.77-2.89-.52-4.67.23-1.69.77-3.18,1.64-4.47.86-1.29,2.02-2.3,3.46-3.03s3.1-1.1,4.99-1.1c1.69,0,3.13.36,4.32,1.09,1.19.72,2.05,1.75,2.58,3.09s.67,2.96.4,4.87l-.13,1.07h-13.18l.47-2.97h9.11l-.5.6c.15-.91.13-1.69-.08-2.34-.22-.65-.58-1.14-1.12-1.49-.53-.34-1.22-.51-2.03-.51s-1.57.19-2.23.57c-.67.38-1.22.9-1.64,1.57s-.71,1.45-.86,2.33l-.13.84c-.2,1.12-.15,2.03.13,2.77.29.74.81,1.29,1.57,1.66s1.74.57,2.93.57c.89,0,1.81-.12,2.77-.35.95-.23,1.81-.58,2.57-1.02l1.07,3.37c-1,.62-2.12,1.08-3.37,1.37s-2.45.43-3.6.43h0Z"/><path class="cls-3" d="M260.55,81.4c-1.89,0-3.47-.38-4.73-1.13-1.27-.76-2.19-1.8-2.75-3.13s-.73-2.87-.49-4.61c.18-1.33.55-2.54,1.12-3.62s1.3-1.99,2.19-2.72c.89-.74,1.93-1.3,3.11-1.7s2.47-.6,3.87-.6c1.22,0,2.37.17,3.44.51s1.9.78,2.5,1.31l-1.7,3.81c-.53-.42-1.16-.75-1.88-.98-.72-.23-1.46-.35-2.22-.35s-1.39.11-1.99.31-1.11.52-1.55.94-.8.9-1.07,1.45c-.27.56-.44,1.2-.53,1.94-.18,1.33.06,2.38.74,3.14.67.76,1.69,1.13,3.07,1.13.74,0,1.49-.13,2.29-.37.79-.24,1.49-.57,2.12-.97l1.07,3.81c-.49.36-1.08.68-1.78.95s-1.46.5-2.27.65-1.66.23-2.52.23h0Z"/><path class="cls-3" d="M278.54,81.4c-1.69,0-3.05-.29-4.09-.86s-1.73-1.4-2.09-2.47-.42-2.36-.2-3.87l1-6.24h-3.24l.6-3.7h3.6l.7-4.57h4.97l-.74,4.57h5.87l-.57,3.7h-5.87l-1,6.1c-.15,1.12,0,1.92.45,2.42s1.2.75,2.22.75c.44,0,.88-.04,1.32-.12.43-.08.86-.18,1.25-.31l.06,3.74c-.65.31-1.33.53-2.05.67s-1.47.2-2.22.2h0Z"/><path class="cls-3" d="M285.82,81.04l2.67-16.79h4.67l-.67,4.24h.13c.56-1.24,1.35-2.29,2.38-3.12s2.25-1.29,3.65-1.35l2.23-.14-.3,4.94-3.64.33c-.85.06-1.58.28-2.21.63-.62.36-1.12.83-1.48,1.42s-.62,1.25-.75,1.99l-1.27,7.84h-5.45Z"/><path class="cls-3" d="M301.83,81.04l2.67-16.79h5.44l-2.67,16.79h-5.44ZM304.97,61.11l.77-4.77h5.51l-.8,4.77h-5.47Z"/><path class="cls-3" d="M320.75,81.4c-1.89,0-3.47-.38-4.73-1.13-1.27-.76-2.19-1.8-2.75-3.13s-.73-2.87-.49-4.61c.18-1.33.55-2.54,1.12-3.62s1.3-1.99,2.19-2.72c.89-.74,1.93-1.3,3.11-1.7s2.47-.6,3.87-.6c1.22,0,2.37.17,3.44.51s1.9.78,2.5,1.31l-1.7,3.81c-.53-.42-1.16-.75-1.88-.98-.72-.23-1.46-.35-2.22-.35s-1.39.11-1.99.31-1.11.52-1.55.94-.8.9-1.07,1.45c-.27.56-.44,1.2-.53,1.94-.18,1.33.06,2.38.74,3.14.67.76,1.69,1.13,3.07,1.13.74,0,1.49-.13,2.29-.37.79-.24,1.49-.57,2.12-.97l1.07,3.81c-.49.36-1.08.68-1.78.95s-1.46.5-2.27.65-1.66.23-2.52.23h0Z"/><path class="cls-3" d="M336.2,81.4c-1.29,0-2.39-.26-3.32-.78s-1.62-1.21-2.09-2.07c-.47-.85-.62-1.81-.47-2.85.13-1.09.6-1.99,1.42-2.7.81-.71,1.99-1.24,3.54-1.58,1.55-.34,3.48-.52,5.82-.52h2.47l-.4,2.7h-2.07c-1.16,0-2.13.05-2.93.15s-1.41.3-1.84.6-.67.75-.74,1.35c-.09.65.08,1.15.52,1.52s1.06.55,1.88.55c.69,0,1.35-.15,1.99-.47s1.17-.75,1.62-1.31.72-1.24.84-2.02l.53-3.4c.18-1.07-.03-1.83-.62-2.29s-1.53-.68-2.82-.68c-.89,0-1.86.13-2.92.37-1.05.24-2.19.66-3.38,1.23l-.94-3.37c.86-.42,1.76-.77,2.68-1.07.93-.29,1.88-.5,2.87-.65s2-.22,3.02-.22c1.8,0,3.28.28,4.44.84s1.97,1.4,2.46,2.54c.48,1.13.58,2.57.32,4.3l-1.5,9.48h-4.44l.5-3.34h-.1c-.42.78-.95,1.44-1.58,1.99s-1.35.96-2.13,1.27-1.67.45-2.62.45l-.02-.02Z"/><path class="cls-3" d="M357.68,81.4c-2.04,0-3.52-.53-4.42-1.6s-1.2-2.59-.88-4.57l2.8-17.72h5.44l-2.77,17.35c-.06.51-.05.95.04,1.3.09.36.26.63.52.82.25.19.6.28,1.05.28.33,0,.65-.02.95-.06.3-.05.6-.1.92-.17l-.17,3.81c-.6.2-1.16.34-1.67.43-.51.09-1.12.14-1.8.14h0Z"/><path class="cls-3" d="M383.67,81.4c-1.24,0-2.45-.08-3.62-.25s-2.24-.41-3.22-.75-1.83-.74-2.54-1.2l1.87-4.24c.74.47,1.54.85,2.4,1.13.86.29,1.78.5,2.74.62s1.92.18,2.87.18,1.85-.11,2.56-.31c.7-.21,1.25-.51,1.65-.9.4-.39.62-.83.67-1.31.09-.56.04-1.01-.17-1.35-.2-.34-.55-.62-1.03-.84-.49-.21-1.13-.39-1.93-.52l-3.77-.7c-2.18-.38-3.69-1.17-4.54-2.39s-1.16-2.7-.94-4.45c.13-1.13.5-2.13,1.12-2.99.61-.86,1.4-1.58,2.37-2.19.97-.6,2.07-1.05,3.32-1.35s2.57-.45,3.97-.45c1.67,0,3.2.2,4.61.59s2.56.96,3.47,1.72l-1.9,4.2c-.85-.74-1.84-1.25-2.97-1.55s-2.35-.45-3.64-.45c-.91,0-1.74.11-2.47.31-.74.21-1.32.5-1.77.88-.44.38-.7.84-.77,1.37-.09.74.08,1.31.51,1.74s1.23.74,2.38.94l3.73.67c2.21.38,3.78,1.12,4.73,2.23.95,1.12,1.31,2.58,1.03,4.4-.15,1.16-.53,2.19-1.12,3.09-.59.9-1.37,1.66-2.34,2.27-.96.61-2.06,1.07-3.28,1.39s-2.56.47-4.01.47h0Z"/><path class="cls-3" d="M407.07,81.4c-2.29,0-4.15-.37-5.57-1.12-1.42-.75-2.43-1.78-3.02-3.12-.59-1.33-.77-2.89-.52-4.67.22-1.69.77-3.18,1.64-4.47.86-1.29,2.02-2.3,3.46-3.03s3.1-1.1,4.99-1.1c1.69,0,3.13.36,4.32,1.09,1.19.72,2.05,1.75,2.58,3.09s.67,2.96.4,4.87l-.13,1.07h-13.18l.47-2.97h9.11l-.5.6c.15-.91.13-1.69-.08-2.34-.22-.65-.58-1.14-1.12-1.49-.53-.34-1.22-.51-2.03-.51s-1.57.19-2.23.57c-.67.38-1.22.9-1.64,1.57s-.71,1.45-.86,2.33l-.13.84c-.2,1.12-.15,2.03.13,2.77s.81,1.29,1.57,1.66,1.74.57,2.93.57c.89,0,1.81-.12,2.77-.35.95-.23,1.81-.58,2.57-1.02l1.07,3.37c-1,.62-2.12,1.08-3.37,1.37s-2.45.43-3.6.43h0Z"/><path class="cls-3" d="M418.11,81.04l2.67-16.79h4.67l-.67,4.24h.13c.56-1.24,1.35-2.29,2.38-3.12s2.25-1.29,3.65-1.35l2.23-.14-.3,4.94-3.64.33c-.85.06-1.58.28-2.21.63-.62.36-1.12.83-1.48,1.42s-.62,1.25-.75,1.99l-1.27,7.84h-5.45Z"/><path class="cls-3" d="M439.4,81.04l-4.24-16.79h5.57l2.13,11.35h.04l5.77-11.35h5.74l-9.61,16.79h-5.41,0Z"/><path class="cls-3" d="M453.98,81.04l2.67-16.79h5.44l-2.67,16.79h-5.44ZM457.11,61.11l.77-4.77h5.51l-.8,4.77h-5.47Z"/><path class="cls-3" d="M472.9,81.4c-1.89,0-3.47-.38-4.73-1.13-1.27-.76-2.19-1.8-2.75-3.13s-.73-2.87-.49-4.61c.18-1.33.55-2.54,1.12-3.62s1.3-1.99,2.19-2.72c.89-.74,1.93-1.3,3.11-1.7s2.47-.6,3.87-.6c1.22,0,2.37.17,3.44.51,1.07.34,1.9.78,2.5,1.31l-1.7,3.81c-.53-.42-1.16-.75-1.88-.98-.72-.23-1.46-.35-2.22-.35s-1.39.11-1.99.31-1.11.52-1.55.94-.8.9-1.07,1.45c-.27.56-.44,1.2-.53,1.94-.18,1.33.06,2.38.74,3.14.67.76,1.69,1.13,3.07,1.13.74,0,1.49-.13,2.29-.37.79-.24,1.49-.57,2.12-.97l1.07,3.81c-.49.36-1.08.68-1.78.95s-1.46.5-2.27.65-1.66.23-2.52.23h0Z"/><path class="cls-3" d="M491.49,81.4c-2.29,0-4.15-.37-5.57-1.12-1.42-.75-2.43-1.78-3.02-3.12-.59-1.33-.76-2.89-.52-4.67.23-1.69.76-3.18,1.64-4.47.86-1.29,2.02-2.3,3.46-3.03s3.1-1.1,4.99-1.1c1.69,0,3.13.36,4.32,1.09,1.19.72,2.05,1.75,2.58,3.09.53,1.33.67,2.96.4,4.87l-.14,1.07h-13.18l.47-2.97h9.11l-.5.6c.15-.91.13-1.69-.08-2.34-.22-.65-.59-1.14-1.12-1.49-.53-.34-1.21-.51-2.03-.51s-1.57.19-2.23.57-1.21.9-1.64,1.57-.71,1.45-.86,2.33l-.14.84c-.2,1.12-.15,2.03.14,2.77s.81,1.29,1.57,1.66,1.74.57,2.93.57c.89,0,1.81-.12,2.77-.35.95-.23,1.81-.58,2.56-1.02l1.07,3.37c-1,.62-2.12,1.08-3.37,1.37s-2.45.43-3.6.43h0Z"/><path class="cls-3" d="M509.77,81.4c-1.6,0-3.06-.15-4.37-.45s-2.38-.76-3.2-1.39l1.47-3.4c.53.36,1.14.65,1.84.88s1.4.4,2.15.51,1.45.17,2.11.17c1.16,0,2.04-.15,2.67-.47.62-.31.97-.72,1.04-1.23.06-.42-.04-.76-.3-1-.27-.24-.74-.42-1.4-.53l-3.74-.5c-1.65-.23-2.81-.76-3.48-1.62s-.94-1.94-.78-3.25c.14-.95.54-1.83,1.21-2.6.67-.78,1.64-1.41,2.89-1.9,1.24-.49,2.77-.74,4.57-.74.86,0,1.71.06,2.54.2.82.14,1.59.33,2.3.59s1.29.58,1.74.95l-1.54,3.37c-.62-.49-1.43-.85-2.42-1.08s-1.96-.35-2.92-.35c-1.18,0-2.07.16-2.67.49s-.94.73-1,1.21c-.04.4.06.72.31.97.25.24.69.41,1.31.5l3.5.53c1.78.29,3.03.82,3.77,1.6.74.78,1,1.9.8,3.37-.14,1.03-.57,1.93-1.31,2.72s-1.71,1.4-2.92,1.82-2.61.63-4.19.63Z"/></svg>