<?xml version="1.0" encoding="UTF-8"?><svg id="Layer_2" xmlns="http://www.w3.org/2000/svg" viewBox="0 0 60.69 88.8"><defs><style>.cls-1{fill:#ffed00;fill-rule:evenodd;}</style></defs><g id="Layer_1-2"><path class="cls-1" d="M0,46.34c9.89.24,20.09-.08,30.11.1-.82,1.86-13.42,19.25-14.82,21.2-5.02,6.97-10.05,14.08-14.85,21.16,1.49-.74,5.97-5.14,7.45-6.5l45.41-41.18c1.51-1.36,6.82-5.83,7.4-7.1l-35.99-.07c.28-1.18,10.69-14.99,12.07-16.83,2.15-2.87,4.12-5.58,6.19-8.44,1.29-1.77,5.59-7.07,6.11-8.69l-21.87.17c-4.78,7.36-9,15.37-13.69,22.97-2.38,3.85-4.56,7.65-6.84,11.5-1.12,1.88-6.34,10.07-6.67,11.7"/></g></svg>